<svg width="42" height="42" viewBox="0 0 42 42" fill="none" xmlns="http://www.w3.org/2000/svg">
<g filter="url(#filter0_d_202_10045)">
<path d="M13.865 24.7332L16.8047 23.8965L34.5047 6.22374C34.6444 6.08259 34.7221 5.89291 34.7211 5.69568C34.7202 5.49845 34.6407 5.3095 34.4997 5.16964L33.4397 4.11223C33.3712 4.04279 33.2894 3.9875 33.199 3.9496C33.1086 3.9117 33.0115 3.89194 32.9132 3.89148C32.815 3.89102 32.7177 3.90987 32.627 3.94692C32.5362 3.98397 32.4538 4.03849 32.3847 4.10729L14.7314 21.734L13.865 24.7332ZM35.5381 2.01719L36.5981 3.07624C38.0604 4.53717 38.0738 6.89409 36.6248 8.3402L18.3856 26.5532L12.1022 28.3386C11.9123 28.3913 11.7136 28.4065 11.5177 28.3835C11.3218 28.3604 11.1324 28.2995 10.9603 28.2042C10.7882 28.109 10.6369 27.9812 10.5149 27.8282C10.3929 27.6752 10.3026 27.4999 10.2492 27.3125C10.1674 27.0407 10.1662 26.7515 10.2459 26.4791L12.0738 20.1545L30.2646 1.98919C30.6105 1.64555 31.0223 1.3733 31.476 1.18832C31.9296 1.00334 32.4161 0.909337 32.9069 0.91179C33.3978 0.914243 33.8833 1.0131 34.335 1.20261C34.7867 1.39211 35.1957 1.67011 35.5381 2.01719ZM16.3089 3.91623C17.1369 3.91623 17.808 4.58658 17.808 5.4134C17.8093 5.60885 17.7716 5.80264 17.6969 5.98369C17.6223 6.16474 17.5122 6.3295 17.373 6.46855C17.2338 6.6076 17.0681 6.7182 16.8856 6.79405C16.703 6.86989 16.507 6.90948 16.3089 6.91056H10.3127C8.65669 6.91056 7.31454 8.25126 7.31454 9.90324V27.8659C7.31454 29.5196 8.65669 30.8602 10.3127 30.8602H28.3015C29.9575 30.8602 31.3013 29.5196 31.3013 27.8659V21.8789C31.3013 21.0521 31.9723 20.3817 32.8003 20.3817C33.6283 20.3817 34.2994 21.0521 34.2994 21.8806V27.8659C34.2994 31.1732 31.6134 33.8546 28.3015 33.8546H10.3127C7.0007 33.8546 4.31641 31.1732 4.31641 27.8659V9.90324C4.31641 6.59762 7.0007 3.91623 10.3127 3.91623H16.3089Z" fill="#58585F"/>
</g>
<defs>
<filter id="filter0_d_202_10045" x="0.316406" y="0.911743" width="41.3867" height="40.9428" filterUnits="userSpaceOnUse" color-interpolation-filters="sRGB">
<feFlood flood-opacity="0" result="BackgroundImageFix"/>
<feColorMatrix in="SourceAlpha" type="matrix" values="0 0 0 0 0 0 0 0 0 0 0 0 0 0 0 0 0 0 127 0" result="hardAlpha"/>
<feOffset dy="4"/>
<feGaussianBlur stdDeviation="2"/>
<feComposite in2="hardAlpha" operator="out"/>
<feColorMatrix type="matrix" values="0 0 0 0 0 0 0 0 0 0 0 0 0 0 0 0 0 0 0.25 0"/>
<feBlend mode="normal" in2="BackgroundImageFix" result="effect1_dropShadow_202_10045"/>
<feBlend mode="normal" in="SourceGraphic" in2="effect1_dropShadow_202_10045" result="shape"/>
</filter>
</defs>
</svg>
