<svg width="338" height="205" viewBox="0 0 338 205" fill="none" xmlns="http://www.w3.org/2000/svg">
<rect width="337.565" height="204.683" rx="5.35818" fill="#BFCBE0"/>
<rect x="40.7224" y="24.1118" width="75.5504" height="151.101" fill="#F2F6FD"/>
<rect width="75.5504" height="18.7536" transform="translate(40.7224 23.576)" fill="#1868DB"/>
<path d="M68.6246 29.8579V35.9528H67.5822V29.8579H68.6246ZM70.5376 29.8579V30.6951H65.6859V29.8579H70.5376ZM76.1699 32.7379V33.0728C76.1699 33.5333 76.1099 33.9463 75.9899 34.3119C75.8699 34.6775 75.6983 34.9886 75.475 35.2454C75.2545 35.5021 74.9894 35.6989 74.6796 35.8356C74.3699 35.9696 74.0266 36.0365 73.6499 36.0365C73.2759 36.0365 72.934 35.9696 72.6243 35.8356C72.3173 35.6989 72.0508 35.5021 71.8247 35.2454C71.5987 34.9886 71.4229 34.6775 71.2973 34.3119C71.1745 33.9463 71.1131 33.5333 71.1131 33.0728V32.7379C71.1131 32.2774 71.1745 31.8658 71.2973 31.503C71.4201 31.1374 71.5931 30.8263 71.8164 30.5695C72.0424 30.31 72.3089 30.1132 72.6159 29.9793C72.9257 29.8425 73.2675 29.7742 73.6415 29.7742C74.0182 29.7742 74.3615 29.8425 74.6713 29.9793C74.981 30.1132 75.2476 30.31 75.4708 30.5695C75.6941 30.8263 75.8657 31.1374 75.9857 31.503C76.1085 31.8658 76.1699 32.2774 76.1699 32.7379ZM75.1192 33.0728V32.7295C75.1192 32.3891 75.0857 32.0891 75.0187 31.8295C74.9545 31.5672 74.8582 31.3481 74.7299 31.1723C74.6043 30.9937 74.4494 30.8598 74.2652 30.7705C74.081 30.6784 73.8731 30.6323 73.6415 30.6323C73.4099 30.6323 73.2034 30.6784 73.022 30.7705C72.8406 30.8598 72.6857 30.9937 72.5573 31.1723C72.4317 31.3481 72.3354 31.5672 72.2685 31.8295C72.2015 32.0891 72.168 32.3891 72.168 32.7295V33.0728C72.168 33.4133 72.2015 33.7147 72.2685 33.977C72.3354 34.2393 72.4331 34.4612 72.5615 34.6426C72.6926 34.8212 72.8489 34.9565 73.0303 35.0486C73.2117 35.1379 73.4182 35.1826 73.6499 35.1826C73.8843 35.1826 74.0922 35.1379 74.2736 35.0486C74.455 34.9565 74.6085 34.8212 74.7341 34.6426C74.8596 34.4612 74.9545 34.2393 75.0187 33.977C75.0857 33.7147 75.1192 33.4133 75.1192 33.0728ZM81.2977 35.9528H79.9958L80.0042 35.1198H81.2977C81.6744 35.1198 81.9898 35.0375 82.2437 34.8728C82.5005 34.7082 82.693 34.4723 82.8214 34.1654C82.9526 33.8584 83.0181 33.4928 83.0181 33.0686V32.7379C83.0181 32.4086 82.9805 32.117 82.9051 31.863C82.8326 31.6091 82.7237 31.3956 82.5786 31.2225C82.4363 31.0495 82.2605 30.9184 82.0512 30.8291C81.8446 30.7398 81.606 30.6951 81.3353 30.6951H79.9707V29.8579H81.3353C81.74 29.8579 82.1098 29.9263 82.4447 30.063C82.7795 30.197 83.0684 30.3909 83.3112 30.6449C83.5568 30.8988 83.7451 31.203 83.8763 31.5574C84.0075 31.9119 84.073 32.3081 84.073 32.7463V33.0686C84.073 33.5068 84.0075 33.903 83.8763 34.2575C83.7451 34.6119 83.5568 34.9161 83.3112 35.17C83.0656 35.4212 82.7726 35.6151 82.4321 35.7519C82.0944 35.8858 81.7163 35.9528 81.2977 35.9528ZM80.5777 29.8579V35.9528H79.527V29.8579H80.5777ZM90.0737 32.7379V33.0728C90.0737 33.5333 90.0137 33.9463 89.8937 34.3119C89.7737 34.6775 89.6021 34.9886 89.3788 35.2454C89.1583 35.5021 88.8932 35.6989 88.5835 35.8356C88.2737 35.9696 87.9304 36.0365 87.5537 36.0365C87.1797 36.0365 86.8379 35.9696 86.5281 35.8356C86.2211 35.6989 85.9546 35.5021 85.7285 35.2454C85.5025 34.9886 85.3267 34.6775 85.2011 34.3119C85.0783 33.9463 85.0169 33.5333 85.0169 33.0728V32.7379C85.0169 32.2774 85.0783 31.8658 85.2011 31.503C85.3239 31.1374 85.4969 30.8263 85.7202 30.5695C85.9462 30.31 86.2127 30.1132 86.5197 29.9793C86.8295 29.8425 87.1713 29.7742 87.5453 29.7742C87.9221 29.7742 88.2653 29.8425 88.5751 29.9793C88.8849 30.1132 89.1514 30.31 89.3746 30.5695C89.5979 30.8263 89.7695 31.1374 89.8895 31.503C90.0123 31.8658 90.0737 32.2774 90.0737 32.7379ZM89.023 33.0728V32.7295C89.023 32.3891 88.9895 32.0891 88.9225 31.8295C88.8583 31.5672 88.7621 31.3481 88.6337 31.1723C88.5081 30.9937 88.3532 30.8598 88.169 30.7705C87.9848 30.6784 87.7769 30.6323 87.5453 30.6323C87.3137 30.6323 87.1072 30.6784 86.9258 30.7705C86.7444 30.8598 86.5895 30.9937 86.4611 31.1723C86.3355 31.3481 86.2392 31.5672 86.1723 31.8295C86.1053 32.0891 86.0718 32.3891 86.0718 32.7295V33.0728C86.0718 33.4133 86.1053 33.7147 86.1723 33.977C86.2392 34.2393 86.3369 34.4612 86.4653 34.6426C86.5965 34.8212 86.7527 34.9565 86.9341 35.0486C87.1155 35.1379 87.322 35.1826 87.5537 35.1826C87.7881 35.1826 87.996 35.1379 88.1774 35.0486C88.3588 34.9565 88.5123 34.8212 88.6379 34.6426C88.7635 34.4612 88.8583 34.2393 88.9225 33.977C88.9895 33.7147 89.023 33.4133 89.023 33.0728Z" fill="#FEFEFF"/>
<g filter="url(#filter0_d_143_3882)">
<rect x="58.4041" y="57.8683" width="39.1147" height="24.1118" rx="2.67909" fill="#F9FAFD"/>
<rect x="58.672" y="58.1363" width="38.5789" height="23.576" rx="2.41118" stroke="#1868DB" stroke-width="0.535818"/>
</g>
<path d="M58.9399 60.5474C58.9399 59.3637 59.8995 58.4042 61.0832 58.4042H94.8398C96.0235 58.4042 96.983 59.3638 96.983 60.5474V61.6191H58.9399V60.5474Z" fill="#1868DB"/>
<circle cx="89.7497" cy="72.6034" r="2.947" fill="#1868DB"/>
<rect x="63.7625" y="67.5131" width="9.64473" height="1.60745" fill="#BACEEC"/>
<rect x="63.7625" y="71.7996" width="16.6104" height="1.60745" fill="#BACEEC"/>
<g filter="url(#filter1_d_143_3882)">
<rect x="57.8683" y="129.668" width="39.1147" height="24.1118" rx="2.67909" fill="#F9FAFD"/>
<rect x="58.1362" y="129.936" width="38.5789" height="23.576" rx="2.41118" stroke="#1868DB" stroke-width="0.535818"/>
</g>
<path d="M58.4041 132.347C58.4041 131.163 59.3636 130.204 60.5473 130.204H94.3039C95.4876 130.204 96.4471 131.163 96.4471 132.347V133.419H58.4041V132.347Z" fill="#1868DB"/>
<circle cx="89.2138" cy="144.403" r="2.947" fill="#1868DB"/>
<rect x="63.2267" y="139.313" width="9.64473" height="1.60745" fill="#BACEEC"/>
<rect x="63.2267" y="143.599" width="16.6104" height="1.60745" fill="#BACEEC"/>
<rect x="129.668" y="24.1118" width="75.5504" height="151.101" fill="#F2F6FD"/>
<rect width="75.5504" height="18.7536" transform="translate(129.668 23.576)" fill="#EA9046"/>
<path d="M141.802 29.8579V35.9528H140.751V29.8579H141.802ZM148.029 29.8579V35.9528H146.978L144.244 31.5867V35.9528H143.194V29.8579H144.244L146.986 34.2323V29.8579H148.029ZM153.902 33.6798H152.315V32.8467H153.902C154.178 32.8467 154.401 32.8021 154.571 32.7128C154.742 32.6235 154.866 32.5007 154.944 32.3444C155.025 32.1853 155.065 32.004 155.065 31.8002C155.065 31.6077 155.025 31.4277 154.944 31.2602C154.866 31.09 154.742 30.9532 154.571 30.85C154.401 30.7467 154.178 30.6951 153.902 30.6951H152.637V35.9528H151.587V29.8579H153.902C154.373 29.8579 154.774 29.9416 155.103 30.1091C155.435 30.2737 155.688 30.5025 155.861 30.7956C156.034 31.0858 156.12 31.4179 156.12 31.7919C156.12 32.1853 156.034 32.523 155.861 32.8049C155.688 33.0868 155.435 33.303 155.103 33.4537C154.774 33.6044 154.373 33.6798 153.902 33.6798ZM157.148 29.8579H159.304C159.767 29.8579 160.162 29.9277 160.488 30.0672C160.815 30.2067 161.065 30.4132 161.238 30.6867C161.413 30.9574 161.501 31.2923 161.501 31.6914C161.501 31.9956 161.446 32.2635 161.334 32.4951C161.222 32.7267 161.065 32.9221 160.861 33.0812C160.657 33.2374 160.414 33.3588 160.132 33.4454L159.814 33.6002H157.876L157.868 32.7672H159.32C159.572 32.7672 159.781 32.7226 159.948 32.6333C160.116 32.544 160.241 32.4226 160.325 32.2691C160.412 32.1128 160.455 31.937 160.455 31.7416C160.455 31.5295 160.413 31.3453 160.329 31.1891C160.248 31.03 160.123 30.9086 159.952 30.8249C159.782 30.7384 159.566 30.6951 159.304 30.6951H158.199V35.9528H157.148V29.8579ZM160.626 35.9528L159.195 33.2151L160.296 33.2109L161.748 35.8984V35.9528H160.626ZM167.494 32.7379V33.0728C167.494 33.5333 167.434 33.9463 167.314 34.3119C167.194 34.6775 167.022 34.9886 166.799 35.2454C166.578 35.5021 166.313 35.6989 166.003 35.8356C165.694 35.9696 165.35 36.0365 164.974 36.0365C164.6 36.0365 164.258 35.9696 163.948 35.8356C163.641 35.6989 163.375 35.5021 163.148 35.2454C162.922 34.9886 162.747 34.6775 162.621 34.3119C162.498 33.9463 162.437 33.5333 162.437 33.0728V32.7379C162.437 32.2774 162.498 31.8658 162.621 31.503C162.744 31.1374 162.917 30.8263 163.14 30.5695C163.366 30.31 163.633 30.1132 163.94 29.9793C164.249 29.8425 164.591 29.7742 164.965 29.7742C165.342 29.7742 165.685 29.8425 165.995 29.9793C166.305 30.1132 166.571 30.31 166.795 30.5695C167.018 30.8263 167.189 31.1374 167.309 31.503C167.432 31.8658 167.494 32.2774 167.494 32.7379ZM166.443 33.0728V32.7295C166.443 32.3891 166.409 32.0891 166.342 31.8295C166.278 31.5672 166.182 31.3481 166.054 31.1723C165.928 30.9937 165.773 30.8598 165.589 30.7705C165.405 30.6784 165.197 30.6323 164.965 30.6323C164.734 30.6323 164.527 30.6784 164.346 30.7705C164.164 30.8598 164.009 30.9937 163.881 31.1723C163.755 31.3481 163.659 31.5672 163.592 31.8295C163.525 32.0891 163.492 32.3891 163.492 32.7295V33.0728C163.492 33.4133 163.525 33.7147 163.592 33.977C163.659 34.2393 163.757 34.4612 163.885 34.6426C164.016 34.8212 164.173 34.9565 164.354 35.0486C164.535 35.1379 164.742 35.1826 164.974 35.1826C165.208 35.1826 165.416 35.1379 165.597 35.0486C165.779 34.9565 165.932 34.8212 166.058 34.6426C166.183 34.4612 166.278 34.2393 166.342 33.977C166.409 33.7147 166.443 33.4133 166.443 33.0728ZM173.31 32.8384V35.1658C173.224 35.2803 173.088 35.4058 172.904 35.5426C172.723 35.6765 172.481 35.7924 172.18 35.89C171.878 35.9877 171.503 36.0365 171.054 36.0365C170.671 36.0365 170.321 35.9724 170.003 35.844C169.685 35.7128 169.41 35.5217 169.178 35.2705C168.95 35.0193 168.772 34.7137 168.647 34.3537C168.521 33.9909 168.458 33.5779 168.458 33.1147V32.6919C168.458 32.2314 168.516 31.8212 168.63 31.4612C168.747 31.0984 168.915 30.7914 169.132 30.5402C169.35 30.2891 169.612 30.0993 169.919 29.9709C170.229 29.8397 170.579 29.7742 170.97 29.7742C171.47 29.7742 171.883 29.8579 172.209 30.0253C172.538 30.19 172.792 30.4188 172.971 30.7118C173.15 31.0049 173.263 31.3398 173.31 31.7165H172.28C172.247 31.5044 172.181 31.3146 172.084 31.1472C171.989 30.9798 171.852 30.8486 171.673 30.7537C171.498 30.656 171.269 30.6072 170.987 30.6072C170.744 30.6072 170.531 30.6532 170.346 30.7453C170.162 30.8374 170.009 30.9728 169.886 31.1514C169.766 31.33 169.675 31.5477 169.614 31.8044C169.552 32.0612 169.522 32.3542 169.522 32.6835V33.1147C169.522 33.4495 169.557 33.7468 169.626 34.0063C169.699 34.2658 169.802 34.4849 169.936 34.6635C170.073 34.8421 170.239 34.9775 170.434 35.0696C170.63 35.1589 170.85 35.2035 171.096 35.2035C171.336 35.2035 171.532 35.184 171.686 35.1449C171.839 35.103 171.961 35.0542 172.05 34.9984C172.142 34.9398 172.213 34.884 172.264 34.831V33.6212H170.995V32.8384H173.31ZM174.56 29.8579H176.715C177.179 29.8579 177.574 29.9277 177.9 30.0672C178.227 30.2067 178.476 30.4132 178.649 30.6867C178.825 30.9574 178.913 31.2923 178.913 31.6914C178.913 31.9956 178.857 32.2635 178.746 32.4951C178.634 32.7267 178.476 32.9221 178.273 33.0812C178.069 33.2374 177.826 33.3588 177.544 33.4454L177.226 33.6002H175.288L175.28 32.7672H176.732C176.983 32.7672 177.193 32.7226 177.36 32.6333C177.527 32.544 177.653 32.4226 177.737 32.2691C177.823 32.1128 177.867 31.937 177.867 31.7416C177.867 31.5295 177.825 31.3453 177.741 31.1891C177.66 31.03 177.534 30.9086 177.364 30.8249C177.194 30.7384 176.978 30.6951 176.715 30.6951H175.61V35.9528H174.56V29.8579ZM178.038 35.9528L176.607 33.2151L177.707 33.2109L179.16 35.8984V35.9528H178.038ZM184.035 35.1198V35.9528H180.799V35.1198H184.035ZM181.096 29.8579V35.9528H180.045V29.8579H181.096ZM183.612 32.403V33.2235H180.799V32.403H183.612ZM184.014 29.8579V30.6951H180.799V29.8579H184.014ZM188.185 34.383C188.185 34.2575 188.166 34.1458 188.126 34.0482C188.09 33.9505 188.025 33.8612 187.93 33.7802C187.835 33.6993 187.701 33.6212 187.528 33.5458C187.358 33.4677 187.14 33.3881 186.875 33.3072C186.585 33.2179 186.317 33.1188 186.071 33.01C185.828 32.8984 185.616 32.77 185.435 32.6249C185.253 32.477 185.113 32.3081 185.012 32.1184C184.912 31.9258 184.861 31.7039 184.861 31.4528C184.861 31.2044 184.913 30.9784 185.016 30.7746C185.122 30.5709 185.272 30.3951 185.464 30.2472C185.659 30.0965 185.89 29.9807 186.155 29.8997C186.42 29.816 186.713 29.7742 187.034 29.7742C187.486 29.7742 187.875 29.8579 188.202 30.0253C188.531 30.1928 188.784 30.4174 188.96 30.6993C189.138 30.9812 189.227 31.2923 189.227 31.6328H188.185C188.185 31.4319 188.142 31.2546 188.055 31.1012C187.972 30.9449 187.843 30.8221 187.67 30.7328C187.5 30.6435 187.284 30.5988 187.021 30.5988C186.773 30.5988 186.566 30.6365 186.402 30.7118C186.237 30.7872 186.114 30.8891 186.033 31.0174C185.953 31.1458 185.912 31.2909 185.912 31.4528C185.912 31.5672 185.939 31.6719 185.992 31.7667C186.045 31.8588 186.126 31.9453 186.234 32.0263C186.343 32.1044 186.48 32.1784 186.645 32.2481C186.809 32.3179 187.003 32.3849 187.226 32.4491C187.564 32.5495 187.859 32.6612 188.11 32.784C188.361 32.904 188.57 33.0407 188.738 33.1942C188.905 33.3477 189.031 33.5221 189.114 33.7175C189.198 33.91 189.24 34.1291 189.24 34.3747C189.24 34.6314 189.188 34.863 189.085 35.0696C188.982 35.2733 188.834 35.4477 188.641 35.5928C188.452 35.7351 188.223 35.8454 187.955 35.9235C187.69 35.9989 187.394 36.0365 187.067 36.0365C186.774 36.0365 186.486 35.9975 186.201 35.9193C185.919 35.8412 185.662 35.7226 185.431 35.5635C185.199 35.4017 185.015 35.2007 184.878 34.9607C184.741 34.7179 184.673 34.4347 184.673 34.1109H185.724C185.724 34.3091 185.757 34.4779 185.824 34.6175C185.894 34.757 185.99 34.8714 186.113 34.9607C186.236 35.0472 186.378 35.1114 186.54 35.1533C186.705 35.1951 186.88 35.2161 187.067 35.2161C187.313 35.2161 187.518 35.1812 187.683 35.1114C187.85 35.0416 187.976 34.944 188.06 34.8184C188.143 34.6928 188.185 34.5477 188.185 34.383ZM193.462 34.383C193.462 34.2575 193.442 34.1458 193.403 34.0482C193.367 33.9505 193.301 33.8612 193.206 33.7802C193.111 33.6993 192.977 33.6212 192.804 33.5458C192.634 33.4677 192.416 33.3881 192.151 33.3072C191.861 33.2179 191.593 33.1188 191.348 33.01C191.105 32.8984 190.893 32.77 190.711 32.6249C190.53 32.477 190.389 32.3081 190.289 32.1184C190.188 31.9258 190.138 31.7039 190.138 31.4528C190.138 31.2044 190.189 30.9784 190.293 30.7746C190.399 30.5709 190.548 30.3951 190.741 30.2472C190.936 30.0965 191.166 29.9807 191.431 29.8997C191.696 29.816 191.989 29.7742 192.31 29.7742C192.762 29.7742 193.152 29.8579 193.478 30.0253C193.808 30.1928 194.06 30.4174 194.236 30.6993C194.415 30.9812 194.504 31.2923 194.504 31.6328H193.462C193.462 31.4319 193.418 31.2546 193.332 31.1012C193.248 30.9449 193.12 30.8221 192.947 30.7328C192.776 30.6435 192.56 30.5988 192.298 30.5988C192.049 30.5988 191.843 30.6365 191.678 30.7118C191.514 30.7872 191.391 30.8891 191.31 31.0174C191.229 31.1458 191.189 31.2909 191.189 31.4528C191.189 31.5672 191.215 31.6719 191.268 31.7667C191.321 31.8588 191.402 31.9453 191.511 32.0263C191.62 32.1044 191.756 32.1784 191.921 32.2481C192.086 32.3179 192.28 32.3849 192.503 32.4491C192.841 32.5495 193.135 32.6612 193.386 32.784C193.637 32.904 193.847 33.0407 194.014 33.1942C194.182 33.3477 194.307 33.5221 194.391 33.7175C194.475 33.91 194.516 34.1291 194.516 34.3747C194.516 34.6314 194.465 34.863 194.362 35.0696C194.258 35.2733 194.11 35.4477 193.918 35.5928C193.728 35.7351 193.499 35.8454 193.231 35.9235C192.966 35.9989 192.67 36.0365 192.344 36.0365C192.051 36.0365 191.762 35.9975 191.477 35.9193C191.195 35.8412 190.939 35.7226 190.707 35.5635C190.475 35.4017 190.291 35.2007 190.155 34.9607C190.018 34.7179 189.949 34.4347 189.949 34.1109H191C191 34.3091 191.034 34.4779 191.101 34.6175C191.17 34.757 191.267 34.8714 191.389 34.9607C191.512 35.0472 191.655 35.1114 191.816 35.1533C191.981 35.1951 192.157 35.2161 192.344 35.2161C192.589 35.2161 192.795 35.1812 192.959 35.1114C193.127 35.0416 193.252 34.944 193.336 34.8184C193.42 34.6928 193.462 34.5477 193.462 34.383Z" fill="#FEFEFF"/>
<g filter="url(#filter2_d_143_3882)">
<rect x="147.886" y="57.8683" width="39.1147" height="24.1118" rx="2.67909" fill="#F9FAFD"/>
<rect x="148.154" y="58.1363" width="38.5789" height="23.576" rx="2.41118" stroke="#EA9046" stroke-width="0.535818"/>
</g>
<path d="M148.422 60.5474C148.422 59.3637 149.381 58.4042 150.565 58.4042H184.321C185.505 58.4042 186.465 59.3638 186.465 60.5474V61.6191H148.422V60.5474Z" fill="#EA9046"/>
<circle cx="179.231" cy="72.6034" r="2.947" fill="#EA9046"/>
<rect x="153.244" y="67.5131" width="9.64473" height="1.60745" fill="#BACEEC"/>
<rect x="153.244" y="71.7996" width="16.6104" height="1.60745" fill="#BACEEC"/>
<rect x="218.614" y="24.1118" width="75.5504" height="151.101" fill="#F2F6FD"/>
<rect x="218.882" y="23.8439" width="75.0145" height="18.2178" fill="#247247"/>
<rect x="218.882" y="23.8439" width="75.0145" height="18.2178" stroke="#247247" stroke-width="0.535818"/>
<path d="M247.428 35.9528H246.126L246.134 35.1198H247.428C247.804 35.1198 248.12 35.0375 248.374 34.8728C248.63 34.7082 248.823 34.4723 248.951 34.1654C249.083 33.8584 249.148 33.4928 249.148 33.0686V32.7379C249.148 32.4086 249.11 32.117 249.035 31.863C248.963 31.6091 248.854 31.3956 248.709 31.2225C248.566 31.0495 248.39 30.9184 248.181 30.8291C247.975 30.7398 247.736 30.6951 247.465 30.6951H246.101V29.8579H247.465C247.87 29.8579 248.24 29.9263 248.575 30.063C248.909 30.197 249.198 30.3909 249.441 30.6449C249.687 30.8988 249.875 31.203 250.006 31.5574C250.137 31.9119 250.203 32.3081 250.203 32.7463V33.0686C250.203 33.5068 250.137 33.903 250.006 34.2575C249.875 34.6119 249.687 34.9161 249.441 35.17C249.196 35.4212 248.903 35.6151 248.562 35.7519C248.224 35.8858 247.846 35.9528 247.428 35.9528ZM246.708 29.8579V35.9528H245.657V29.8579H246.708ZM256.204 32.7379V33.0728C256.204 33.5333 256.144 33.9463 256.024 34.3119C255.904 34.6775 255.732 34.9886 255.509 35.2454C255.288 35.5021 255.023 35.6989 254.713 35.8356C254.404 35.9696 254.06 36.0365 253.684 36.0365C253.31 36.0365 252.968 35.9696 252.658 35.8356C252.351 35.6989 252.085 35.5021 251.858 35.2454C251.632 34.9886 251.457 34.6775 251.331 34.3119C251.208 33.9463 251.147 33.5333 251.147 33.0728V32.7379C251.147 32.2774 251.208 31.8658 251.331 31.503C251.454 31.1374 251.627 30.8263 251.85 30.5695C252.076 30.31 252.343 30.1132 252.65 29.9793C252.959 29.8425 253.301 29.7742 253.675 29.7742C254.052 29.7742 254.395 29.8425 254.705 29.9793C255.015 30.1132 255.281 30.31 255.505 30.5695C255.728 30.8263 255.899 31.1374 256.019 31.503C256.142 31.8658 256.204 32.2774 256.204 32.7379ZM255.153 33.0728V32.7295C255.153 32.3891 255.119 32.0891 255.052 31.8295C254.988 31.5672 254.892 31.3481 254.764 31.1723C254.638 30.9937 254.483 30.8598 254.299 30.7705C254.115 30.6784 253.907 30.6323 253.675 30.6323C253.444 30.6323 253.237 30.6784 253.056 30.7705C252.874 30.8598 252.719 30.9937 252.591 31.1723C252.465 31.3481 252.369 31.5672 252.302 31.8295C252.235 32.0891 252.202 32.3891 252.202 32.7295V33.0728C252.202 33.4133 252.235 33.7147 252.302 33.977C252.369 34.2393 252.467 34.4612 252.595 34.6426C252.726 34.8212 252.883 34.9565 253.064 35.0486C253.245 35.1379 253.452 35.1826 253.684 35.1826C253.918 35.1826 254.126 35.1379 254.307 35.0486C254.489 34.9565 254.642 34.8212 254.768 34.6426C254.893 34.4612 254.988 34.2393 255.052 33.977C255.119 33.7147 255.153 33.4133 255.153 33.0728ZM262.175 29.8579V35.9528H261.124L258.391 31.5867V35.9528H257.34V29.8579H258.391L261.133 34.2323V29.8579H262.175ZM267.502 35.1198V35.9528H264.266V35.1198H267.502ZM264.563 29.8579V35.9528H263.512V29.8579H264.563ZM267.079 32.403V33.2235H264.266V32.403H267.079ZM267.481 29.8579V30.6951H264.266V29.8579H267.481Z" fill="#FEFEFF"/>
<g filter="url(#filter3_d_143_3882)">
<rect x="236.832" y="57.8683" width="39.1147" height="24.1118" rx="2.67909" fill="#F9FAFD"/>
<rect x="237.1" y="58.1363" width="38.5789" height="23.576" rx="2.41118" stroke="#247247" stroke-width="0.535818"/>
</g>
<path d="M237.635 60.5474C237.635 59.5117 238.475 58.6721 239.511 58.6721H273.267C274.303 58.6721 275.143 59.5117 275.143 60.5474V61.3512H237.635V60.5474Z" fill="#247247" stroke="#247247" stroke-width="0.535818"/>
<circle cx="268.177" cy="72.6034" r="2.67909" fill="#247247" stroke="#247247" stroke-width="0.535818"/>
<rect x="242.19" y="67.5131" width="9.64473" height="1.60745" fill="#BACEEC"/>
<rect x="242.19" y="71.7996" width="16.6104" height="1.60745" fill="#BACEEC"/>
<g filter="url(#filter4_d_143_3882)">
<rect x="236.832" y="92.1607" width="39.1147" height="24.1118" rx="2.67909" fill="#F9FAFD"/>
<rect x="237.1" y="92.4286" width="38.5789" height="23.576" rx="2.41118" stroke="#247247" stroke-width="0.535818"/>
</g>
<path d="M237.635 94.8398C237.635 93.8041 238.475 92.9644 239.511 92.9644H273.267C274.303 92.9644 275.143 93.8041 275.143 94.8398V95.6435H237.635V94.8398Z" fill="#247247" stroke="#247247" stroke-width="0.535818"/>
<circle cx="268.177" cy="106.896" r="2.67909" fill="#247247" stroke="#247247" stroke-width="0.535818"/>
<rect x="242.19" y="101.805" width="9.64473" height="1.60745" fill="#BACEEC"/>
<rect x="242.19" y="106.092" width="16.6104" height="1.60745" fill="#BACEEC"/>
<g filter="url(#filter5_d_143_3882)">
<rect x="103.413" y="90.5533" width="39.1147" height="24.1118" rx="2.67909" fill="#F9FAFD"/>
<rect x="103.681" y="90.8212" width="38.5789" height="23.576" rx="2.41118" stroke="#EA9046" stroke-width="0.535818"/>
</g>
<path d="M103.949 93.2324C103.949 92.0487 104.908 91.0891 106.092 91.0891H139.848C141.032 91.0891 141.992 92.0487 141.992 93.2324V94.304H103.949V93.2324Z" fill="#EA9046"/>
<circle cx="134.758" cy="105.288" r="2.947" fill="#EA9046"/>
<rect x="108.771" y="100.198" width="9.64473" height="1.60745" fill="#BACEEC"/>
<rect x="108.771" y="104.485" width="16.6104" height="1.60745" fill="#BACEEC"/>
<defs>
<filter id="filter0_d_143_3882" x="56.2608" y="57.8683" width="43.4013" height="28.3984" filterUnits="userSpaceOnUse" color-interpolation-filters="sRGB">
<feFlood flood-opacity="0" result="BackgroundImageFix"/>
<feColorMatrix in="SourceAlpha" type="matrix" values="0 0 0 0 0 0 0 0 0 0 0 0 0 0 0 0 0 0 127 0" result="hardAlpha"/>
<feOffset dy="2.14327"/>
<feGaussianBlur stdDeviation="1.07164"/>
<feComposite in2="hardAlpha" operator="out"/>
<feColorMatrix type="matrix" values="0 0 0 0 0 0 0 0 0 0 0 0 0 0 0 0 0 0 0.25 0"/>
<feBlend mode="normal" in2="BackgroundImageFix" result="effect1_dropShadow_143_3882"/>
<feBlend mode="normal" in="SourceGraphic" in2="effect1_dropShadow_143_3882" result="shape"/>
</filter>
<filter id="filter1_d_143_3882" x="55.725" y="129.668" width="43.4013" height="28.3984" filterUnits="userSpaceOnUse" color-interpolation-filters="sRGB">
<feFlood flood-opacity="0" result="BackgroundImageFix"/>
<feColorMatrix in="SourceAlpha" type="matrix" values="0 0 0 0 0 0 0 0 0 0 0 0 0 0 0 0 0 0 127 0" result="hardAlpha"/>
<feOffset dy="2.14327"/>
<feGaussianBlur stdDeviation="1.07164"/>
<feComposite in2="hardAlpha" operator="out"/>
<feColorMatrix type="matrix" values="0 0 0 0 0 0 0 0 0 0 0 0 0 0 0 0 0 0 0.25 0"/>
<feBlend mode="normal" in2="BackgroundImageFix" result="effect1_dropShadow_143_3882"/>
<feBlend mode="normal" in="SourceGraphic" in2="effect1_dropShadow_143_3882" result="shape"/>
</filter>
<filter id="filter2_d_143_3882" x="145.742" y="57.8683" width="43.4013" height="28.3984" filterUnits="userSpaceOnUse" color-interpolation-filters="sRGB">
<feFlood flood-opacity="0" result="BackgroundImageFix"/>
<feColorMatrix in="SourceAlpha" type="matrix" values="0 0 0 0 0 0 0 0 0 0 0 0 0 0 0 0 0 0 127 0" result="hardAlpha"/>
<feOffset dy="2.14327"/>
<feGaussianBlur stdDeviation="1.07164"/>
<feComposite in2="hardAlpha" operator="out"/>
<feColorMatrix type="matrix" values="0 0 0 0 0 0 0 0 0 0 0 0 0 0 0 0 0 0 0.25 0"/>
<feBlend mode="normal" in2="BackgroundImageFix" result="effect1_dropShadow_143_3882"/>
<feBlend mode="normal" in="SourceGraphic" in2="effect1_dropShadow_143_3882" result="shape"/>
</filter>
<filter id="filter3_d_143_3882" x="234.688" y="57.8683" width="43.4013" height="28.3984" filterUnits="userSpaceOnUse" color-interpolation-filters="sRGB">
<feFlood flood-opacity="0" result="BackgroundImageFix"/>
<feColorMatrix in="SourceAlpha" type="matrix" values="0 0 0 0 0 0 0 0 0 0 0 0 0 0 0 0 0 0 127 0" result="hardAlpha"/>
<feOffset dy="2.14327"/>
<feGaussianBlur stdDeviation="1.07164"/>
<feComposite in2="hardAlpha" operator="out"/>
<feColorMatrix type="matrix" values="0 0 0 0 0 0 0 0 0 0 0 0 0 0 0 0 0 0 0.25 0"/>
<feBlend mode="normal" in2="BackgroundImageFix" result="effect1_dropShadow_143_3882"/>
<feBlend mode="normal" in="SourceGraphic" in2="effect1_dropShadow_143_3882" result="shape"/>
</filter>
<filter id="filter4_d_143_3882" x="234.688" y="92.1607" width="43.4013" height="28.3984" filterUnits="userSpaceOnUse" color-interpolation-filters="sRGB">
<feFlood flood-opacity="0" result="BackgroundImageFix"/>
<feColorMatrix in="SourceAlpha" type="matrix" values="0 0 0 0 0 0 0 0 0 0 0 0 0 0 0 0 0 0 127 0" result="hardAlpha"/>
<feOffset dy="2.14327"/>
<feGaussianBlur stdDeviation="1.07164"/>
<feComposite in2="hardAlpha" operator="out"/>
<feColorMatrix type="matrix" values="0 0 0 0 0 0 0 0 0 0 0 0 0 0 0 0 0 0 0.25 0"/>
<feBlend mode="normal" in2="BackgroundImageFix" result="effect1_dropShadow_143_3882"/>
<feBlend mode="normal" in="SourceGraphic" in2="effect1_dropShadow_143_3882" result="shape"/>
</filter>
<filter id="filter5_d_143_3882" x="101.27" y="90.5533" width="43.4013" height="28.3984" filterUnits="userSpaceOnUse" color-interpolation-filters="sRGB">
<feFlood flood-opacity="0" result="BackgroundImageFix"/>
<feColorMatrix in="SourceAlpha" type="matrix" values="0 0 0 0 0 0 0 0 0 0 0 0 0 0 0 0 0 0 127 0" result="hardAlpha"/>
<feOffset dy="2.14327"/>
<feGaussianBlur stdDeviation="1.07164"/>
<feComposite in2="hardAlpha" operator="out"/>
<feColorMatrix type="matrix" values="0 0 0 0 0 0 0 0 0 0 0 0 0 0 0 0 0 0 0.25 0"/>
<feBlend mode="normal" in2="BackgroundImageFix" result="effect1_dropShadow_143_3882"/>
<feBlend mode="normal" in="SourceGraphic" in2="effect1_dropShadow_143_3882" result="shape"/>
</filter>
</defs>
</svg>
