<svg width="46" height="53" viewBox="0 0 46 53" fill="none" xmlns="http://www.w3.org/2000/svg">
<path d="M1.06934 41.5841V25.8655L8.80389 39.2491L5.96603 44.2608L1.06934 41.5841Z" fill="#58585F" stroke="#58585F" stroke-width="0.0848698"/>
<path d="M8.97776 15.1733L2.35792 13.6456L1 14.4943V24.2544L2.99444 27.0551L6.38923 27.437L5.96488 32.0199L8.97776 37.7062L10.76 32.0199L6.38923 23.0237L8.97776 15.1733Z" fill="#58585F" stroke="#58585F" stroke-width="0.0848698"/>
<path d="M44.9999 40.9576V17.8068L33.8154 14.5321L40.2423 24.641L39.046 29.0263L44.9999 40.9576Z" fill="#58585F" stroke="#58585F" stroke-width="0.0848698"/>
<path d="M10.7231 40.8437L7.74609 45.1151L14.0617 48.6461H17.15L18.9306 42.296L34.1771 40.8437L28.8074 35.234L10.7231 40.8437Z" fill="#58585F" stroke="#58585F" stroke-width="0.0848698"/>
<path d="M23.2154 54.2558L16.6772 50.4685L21.2957 44.6025L28.446 47.9057V43.6343L35.485 42.9224L37.7386 45.3429L23.2154 54.2558Z" fill="#58585F" stroke="#58585F" stroke-width="0.0848698"/>
<path d="M37.0151 32.5573L35.3458 22.1921L31.5342 25.7231L34.6503 39.1351L39.1574 44.6025L43.3308 42.1821L41.9118 38.2809L37.0151 32.5573Z" fill="#58585F" stroke="#58585F" stroke-width="0.0848698"/>
<path d="M44.6606 14.7019L30.833 11.3417V6.33002L44.6606 14.7019Z" fill="#58585F" stroke="#58585F" stroke-width="0.0848698"/>
<path d="M22.5989 1L6.04933 11.3117L3.3335 13.0939L12.8389 13.688L15.8942 8.1715H22.5989L25.8664 3.12175L22.5989 1Z" fill="#58585F" stroke="#58585F" stroke-width="0.0848698"/>
<path d="M29.7706 5.54053L27.6489 4.35236L25.9091 8.93533L18.9497 10.3357L15.3428 14.4519H20.0106L28.3703 10.3357L29.7706 5.54053Z" fill="#58585F" stroke="#58585F" stroke-width="0.0848698"/>
</svg>
