<svg width="55" height="67" viewBox="0 0 55 67" fill="none" xmlns="http://www.w3.org/2000/svg">
<path d="M1.08398 50.5005V31.3285L10.5178 47.6525L7.0565 53.7653L1.08398 50.5005Z" fill="#1868DB" stroke="#1868DB" stroke-width="0.103516"/>
<path d="M10.7305 18.2872L2.65626 16.4239L1 17.459V29.3634L3.43262 32.7794L7.57326 33.2452L7.05568 38.8351L10.7305 45.7707L12.9043 38.8351L7.57326 27.8624L10.7305 18.2872Z" fill="#1868DB" stroke="#1868DB" stroke-width="0.103516"/>
<path d="M54.6672 49.7364V21.4994L41.0254 17.5052L48.8643 29.835L47.4051 35.1838L54.6672 49.7364Z" fill="#1868DB" stroke="#1868DB" stroke-width="0.103516"/>
<path d="M12.8595 49.5975L9.22852 54.8073L16.9317 59.1141H20.6985L22.8703 51.3688L41.4665 49.5975L34.9171 42.7553L12.8595 49.5975Z" fill="#1868DB" stroke="#1868DB" stroke-width="0.103516"/>
<path d="M28.0962 65.9562L20.1216 61.3369L25.7547 54.1821L34.476 58.211V53.0012L43.0615 52.1329L45.8102 55.0852L28.0962 65.9562Z" fill="#1868DB" stroke="#1868DB" stroke-width="0.103516"/>
<path d="M44.9278 39.4905L42.8917 26.8481L38.2427 31.1548L42.0434 47.5136L47.5408 54.1821L52.631 51.2299L50.9003 46.4716L44.9278 39.4905Z" fill="#1868DB" stroke="#1868DB" stroke-width="0.103516"/>
<path d="M54.2528 17.7122L37.3872 13.6139V7.50104L54.2528 17.7122Z" fill="#1868DB" stroke="#1868DB" stroke-width="0.103516"/>
<path d="M27.3448 1L7.15919 13.5772L3.84668 15.751L15.4405 16.4756L19.167 9.7471H27.3448L31.3302 3.5879L27.3448 1Z" fill="#1868DB" stroke="#1868DB" stroke-width="0.103516"/>
<path d="M36.0919 6.53809L33.504 5.08887L31.3819 10.6787L22.8936 12.3867L18.4941 17.4073H24.1875L34.3838 12.3867L36.0919 6.53809Z" fill="#1868DB" stroke="#1868DB" stroke-width="0.103516"/>
</svg>
