<svg width="177" height="214" viewBox="0 0 177 214" fill="none" xmlns="http://www.w3.org/2000/svg">
<path d="M1.27386 162.557V99.9842L32.0363 153.261L20.7494 173.212L1.27386 162.557Z" fill="#1868DB" stroke="#1868DB" stroke-width="0.0557769"/>
<path d="M32.7297 57.4208L6.40081 51.3395L1 54.718V93.5706L8.93243 104.72L22.4345 106.24L20.7467 124.484L32.7297 147.12L39.8183 124.484L22.4345 88.6718L32.7297 57.4208Z" fill="#1868DB" stroke="#1868DB" stroke-width="0.0557769"/>
<path d="M176 160.063V67.9045L131.516 54.8685L157.078 95.1099L152.32 112.567L176 160.063Z" fill="#1868DB" stroke="#1868DB" stroke-width="0.0557769"/>
<path d="M39.6715 159.609L27.8313 176.613L52.9503 190.669H65.2331L72.3151 165.391L132.955 159.609L111.598 137.278L39.6715 159.609Z" fill="#1868DB" stroke="#1868DB" stroke-width="0.0557769"/>
<path d="M89.3562 213L63.352 197.924L81.7209 174.572L110.16 187.722V170.718L138.156 167.884L147.119 177.52L89.3562 213Z" fill="#1868DB" stroke="#1868DB" stroke-width="0.0557769"/>
<path d="M144.242 126.623L137.602 85.3613L122.442 99.4175L134.836 152.808L152.762 174.572L169.361 164.937L163.717 149.407L144.242 126.623Z" fill="#1868DB" stroke="#1868DB" stroke-width="0.0557769"/>
<path d="M174.65 55.5443L119.654 42.1683V22.2176L174.65 55.5443Z" fill="#1868DB" stroke="#1868DB" stroke-width="0.0557769"/>
<path d="M86.9066 1L21.0843 42.0486L10.2827 49.1434L48.0883 51.5084L60.2401 29.5482H86.9066L99.9023 9.44622L86.9066 1Z" fill="#1868DB" stroke="#1868DB" stroke-width="0.0557769"/>
<path d="M115.43 19.0749L106.991 14.345L100.071 32.5888L72.3919 38.1633L58.046 54.549H76.6113L109.86 38.1633L115.43 19.0749Z" fill="#1868DB" stroke="#1868DB" stroke-width="0.0557769"/>
</svg>
