<svg width="48" height="47" viewBox="0 0 48 47" fill="none" xmlns="http://www.w3.org/2000/svg">
<path d="M23.7578 1C36.338 1.00026 46.5146 11.0686 46.5146 23.4619C46.5145 35.8551 36.3379 45.9236 23.7578 45.9238C11.1775 45.9238 1.00013 35.8553 1 23.4619C1 11.0684 11.1774 1 23.7578 1Z" fill="#F8F8FB" stroke="#58585F" stroke-width="2"/>
<path d="M33.8501 11.38C35.1791 10.9214 36.4557 12.1822 35.9914 13.4947L28.2411 35.3647C27.7375 36.783 25.7361 36.8631 25.1187 35.49L21.379 27.1812L26.6426 21.9817C26.8159 21.7981 26.9103 21.5551 26.9058 21.3041C26.9013 21.0531 26.7983 20.8137 26.6186 20.6362C26.4388 20.4587 26.1963 20.357 25.9422 20.3525C25.688 20.3481 25.4421 20.4413 25.2561 20.6124L19.9911 25.8106L11.5776 22.1174C10.1871 21.5063 10.2696 19.5312 11.7045 19.0339L33.8501 11.38Z" fill="#58585F"/>
</svg>
